PathFileType	4	(X/Y/Z)	T1_P1_Vision_Movement_2_0-687.trc
DataRate	CameraRate	NumFrames	NumMarkers	Units	OrigDataRate	OrigDataStartFrame	OrigNumFrames
60	60	4	27	m	60	343	687
Frame#	Time	RHip			RKnee			RAnkle			RBigToe			RSmallToe			RHeel			LHip			LKnee			LAnkle			LBigToe			LSmallToe			LHeel			Neck			Head			Nose			RShoulder			RElbow			RWrist			RThumb			RIndex			RPinky			LShoulder			LElbow			LWrist			LThumb			LIndex			LPinky		
		X1	Y1	Z1	X2	Y2	Z2	X3	Y3	Z3	X4	Y4	Z4	X5	Y5	Z5	X6	Y6	Z6	X7	Y7	Z7	X8	Y8	Z8	X9	Y9	Z9	X10	Y10	Z10	X11	Y11	Z11	X12	Y12	Z12	X13	Y13	Z13	X14	Y14	Z14	X15	Y15	Z15	X16	Y16	Z16	X17	Y17	Z17	X18	Y18	Z18	X19	Y19	Z19	X20	Y20	Z20	X21	Y21	Z21	X22	Y22	Z22	X23	Y23	Z23	X24	Y24	Z24	X25	Y25	Z25	X26	Y26	Z26	X27	Y27	Z27
344	5.733333333333333	-120.42556427664596	3969.158502681486	-673.7215267539856	238.6438683134448	4062.769904562179	-653.527655864553	598.4238413201039	4264.437593514656	-691.2207377104351	685.322948468412	4184.198569293801	-646.3380927781343	675.6274924249046	4145.294059024293	-689.510795143254	636.3067438284376	4314.31406672167	-698.2546464856141	-145.10431948396047	4071.2533803120537	-507.3436355814322	211.66497218207303	4175.120602527361	-499.40936608062293	547.2835171144563	4330.0237573014	-518.181794333798	637.2893603197583	4217.197982812241	-402.01218602605155	604.000266301396	4248.279028786669	-373.65653649681764	606.914668163538	4383.794169941237	-543.0460111463066	-710.161037903523	3819.7981440623907	-606.8609220490599	-947.9826310803942	3678.3217683897547	-558.2305842746536	-797.2603167031668	3632.0017494142876	-483.6950764716193	-590.3440022368907	3776.328658013871	-734.5418489525234	-348.09839573978275	3841.1964526742977	-829.6006431538924	-391.5674547992279	3551.383516369129	-618.9089252678987	-430.10557547039616	3535.0638417796367	-528.7623011096246	-424.47733989127937	3525.3303485533143	-531.2511379074065	-361.2223924403638	3494.6855819953494	-531.1468814936047	-647.4553405978843	3929.4259469851386	-481.3809716906938	-425.0713326888338	4112.662076625846	-433.3193330223299	-157.77372118528766	4094.9735914063695	-366.39070522506074	-37.5882085673009	4058.5178768003716	-363.905846989996	-1.7330774301060263	4121.5047814778245	-365.86895879595056	-25.35897188053489	4152.43029173745	-337.27695431832353
345	5.75	-117.59344901029705	3968.554076588636	-671.4588916687892	238.07850752889468	4057.0411445874915	-649.4574031611098	599.1391782077978	4265.132558644971	-691.554761027868	685.181275067212	4188.892548754943	-647.7373110637479	673.6322653718461	4141.140942131257	-686.76794884034	637.6744371400882	4315.074064674896	-698.4265147919759	-142.63696169652266	4072.6587162713513	-507.67874266129337	214.29718986511656	4174.5612148203645	-499.3662564861512	549.6663272393165	4332.068846813881	-516.4805308420396	636.8291050496728	4214.58650116105	-400.3879178656554	604.199076293549	4244.1453430448655	-372.5566251273324	608.1465215260657	4387.351425544209	-542.0123902811499	-709.8838729797902	3817.3570665187062	-603.877186309254	-946.9770503631431	3673.928493014778	-554.6466445780369	-797.4518979723392	3628.720611584179	-481.33307749727686	-590.3748233224712	3776.4785737050634	-734.5047979920076	-346.9223275010155	3847.853675721084	-829.9644380380377	-394.51120984635554	3556.231625391965	-623.2830031261797	-432.47554883732823	3529.3470519597	-529.3866307641828	-425.8737360888077	3528.8498729828134	-538.7857929468172	-366.5719708741658	3476.9825877117823	-530.6865920418525	-647.4129240710422	3929.458876209793	-481.40775797969854	-422.76036666623577	4113.841028144945	-433.6590065980115	-157.68537565504062	4095.071658755933	-366.45181786249924	-37.84651460876056	4057.465447862557	-363.6763204397141	-1.3300357049433185	4122.582049086764	-366.04790445682397	-23.93932215460892	4153.178362563189	-337.045588039606
346	5.766666666666667	-115.03025303037433	3970.294819490551	-671.3363137886458	237.98340966711066	4055.0449257863875	-647.5601487722254	600.1151432089175	4265.7517848472635	-691.8409480527228	684.682493809248	4191.556979869057	-648.6088874088183	672.76112570856	4141.825942910773	-687.5317951198009	639.7257460902332	4316.08794874854	-698.5608495207069	-141.39776608068598	4073.387627582316	-507.8182370714329	215.678781227792	4178.996326893162	-500.26687022191186	552.2750234985717	4336.37033177492	-516.1999185236392	636.658155392087	4213.55237762407	-399.7451669547312	604.6272117964971	4243.513763655685	-372.23653759946944	608.6773560222406	4387.462671360698	-541.2827034907325	-709.2268937003403	3812.939274652653	-601.1453586338076	-946.6000858808571	3672.165440474727	-553.213123841241	-798.4134430799634	3629.0739150364684	-481.8674880098994	-590.4301913011418	3776.95789512572	-734.5894315967946	-344.62149293774513	3857.2545943343875	-832.6603264344674	-395.820539947422	3564.3717191554983	-630.1610592440228	-435.08128948015377	3527.9644947608253	-532.4260687749485	-427.1730462860362	3535.479507875458	-547.8792330548425	-371.25811589970476	3444.722687686439	-526.9339971055422	-647.5412962095114	3929.449574751297	-481.50068849943034	-422.243402188465	4114.15129982592	-433.71187364794196	-157.54897960158664	4095.2342902330865	-366.54238079835216	-38.00223861965709	4055.5943416549608	-363.3096755993798	-0.3263539514820259	4123.84682962049	-366.3497686946705	-22.350673834492433	4153.902871074053	-336.5534558536868
347	5.783333333333333	-113.34247676227628	3973.400563556599	-673.4471105194409	238.5032183363026	4057.6080715299245	-647.7127460679948	600.0340993089899	4265.526258732382	-691.6945712040513	684.3256339143453	4191.88130922671	-648.7212323221408	672.4790103999568	4143.079713167001	-688.6678110926591	640.1440882841924	4316.208007540331	-698.4165394594493	-141.21210612689305	4073.550626834097	-507.8365986621846	215.6403930895715	4186.691404695489	-501.75424939734665	554.1082040862061	4342.001695153811	-517.022212530441	636.6111885560597	4213.434344211227	-399.66479185719595	604.9604775520883	4244.880920502762	-372.44889517150466	608.6024889756316	4386.6510158238925	-541.0720943328483	-708.7488714612101	3810.140936407774	-600.550897077728	-946.6348409696424	3672.089692118737	-553.1408785123925	-799.4126197739473	3629.94271192495	-482.76983952180694	-590.4992326048309	3777.6209504619983	-734.7715582352339	-341.961163580199	3862.6579494594894	-835.0594674711068	-396.67799997844594	3570.6425169502754	-635.4681558637291	-437.4937511477627	3531.129715621872	-535.6639336940865	-428.495286463694	3542.657711558726	-554.9316737050465	-375.90706161198955	3408.0849123567004	-520.1830089537992	-648.1561752188502	3929.301718400736	-481.5970262743491	-423.47334203661916	4113.507923058139	-433.41290940604597	-157.46493733883526	4095.3124038087135	-366.59475365334004	-37.64715016935803	4055.6760279421815	-363.29342100209544	0.4479391303535303	4124.6012613083985	-366.5998685511447	-21.520096718158065	4154.167982810795	-336.1845443650612
